<svg width="193" height="40" fill="none" xmlns="http://www.w3.org/2000/svg"><path d="M68.013 10.316c-.14-.14-.279-.281-.488-.281h-7.402c-.279 0-.488.14-.558.42L53.14 28.28l-6.145-17.824c-.07-.21-.28-.421-.558-.421h-7.402c-.21 0-.419.07-.489.28-.14.211-.14.421-.07.562l10.544 27.859c.07.21.28.42.559.42h6.633c.28 0 .489-.14.559-.35l11.241-27.859a.528.528 0 000-.631zm11.172-.211c-3.072 0-6.144.421-9.216 1.333-.28.07-.42.28-.42.562v5.543c0 .21.07.351.21.492.14.14.35.14.559.07 2.932-.842 5.865-1.334 8.868-1.334 4.398 0 6.563 1.053 6.563 3.158v1.123c-1.746-.28-3.7-.421-5.865-.421-8.38 0-12.639 3.088-12.639 9.193 0 6.175 3.98 9.262 11.8 9.262 2.724 0 5.238-.631 7.682-1.894l2.723 1.754c.07.07.21.07.349.07h3.561c.35 0 .628-.28.628-.631V19.859c0-6.526-4.957-9.754-14.802-9.754zm7.192 20.63c-1.955 1.474-4.398 2.176-7.261 2.176-2.793 0-4.19-1.052-4.19-3.158 0-2.105 1.676-3.157 5.028-3.157 2.513 0 4.678.21 6.424.561v3.579zm33.656-19.858c-2.304-.562-4.957-.842-7.75-.842-10.544 0-15.92 4.701-15.92 13.964 0 9.965 5.376 15.088 15.92 15.088 2.862 0 5.446-.281 7.75-.843.279-.07.489-.28.489-.56v-5.545c0-.21-.07-.35-.21-.49-.139-.141-.349-.141-.488-.141a32.769 32.769 0 01-6.983.772c-5.516 0-8.239-2.737-8.239-8.28 0-4.843 2.723-7.229 8.239-7.229 2.374 0 4.748.281 6.983.772.209.07.349 0 .488-.14.14-.14.21-.28.21-.491v-5.544c-.07-.21-.21-.421-.489-.491zm10.753-.772h-6.982a.628.628 0 00-.629.631v27.86c0 .35.28.63.629.63h6.982c.349 0 .629-.28.629-.63v-27.93c-.07-.35-.35-.561-.629-.561zm0-10.105h-6.982a.628.628 0 00-.629.632v5.543c0 .351.28.632.629.632h6.982c.349 0 .629-.28.629-.632V.632c-.07-.351-.35-.632-.629-.632zm51.88 10.105c-3.282 0-6.563 1.053-9.775 3.158l-.629-2.737c-.07-.28-.279-.491-.558-.491h-5.377a.627.627 0 00-.628.631v27.86c0 .35.279.63.628.63h6.983c.349 0 .628-.28.628-.63V20.14c2.304-2.105 4.608-3.158 6.843-3.158 2.723 0 3.98 1.263 3.98 4v17.543c0 .351.279.632.628.632h6.983c.349 0 .628-.281.628-.632V21.052c-.209-7.298-3.631-10.947-10.334-10.947zm-34.144-.28h-.349l-4.05 1.543c-.349.14-.699.21-1.048.21-.628 0-1.187-.21-1.675-.49-4.958 2.034-7.472 6.596-7.472 13.613.07 9.824 4.958 14.736 14.594 14.736 9.705 0 14.593-4.982 14.593-14.736 0-9.894-4.888-14.877-14.593-14.877zm0 22.806c-4.329 0-6.354-2.667-6.354-8.14 0-5.334 2.094-7.93 6.354-7.93 4.329 0 6.354 2.596 6.354 7.93.07 5.473-2.025 8.14-6.354 8.14z" fill="#fff"/><path d="M19.551.352C6.564.352 0 7.018 0 20.282.559 33.333 7.122 40 19.551 40c12.778 0 19.272-6.666 19.272-19.79C38.823 7.019 32.329.353 19.55.353zm0 32.35c-6.563 0-9.775-4.14-9.775-12.631 0-8.351 3.212-12.421 9.775-12.421 6.354 0 9.496 4.07 9.496 12.42 0 8.492-3.142 12.632-9.496 12.632zm123.171-22.035c.07.07.21.14.349.14.07 0 .14 0 .21-.07l10.543-4c.21-.07.419-.28.419-.56V.631c0-.21-.069-.35-.279-.49-.14-.141-.349-.141-.558-.071l-10.544 4c-.21.07-.419.28-.419.561v5.544c.07.14.14.35.279.491z" fill="#D1222A"/></svg>
