<?xml version="1.0" encoding="UTF-8"?>
<svg id="Capa_1" data-name="Capa 1" xmlns="http://www.w3.org/2000/svg" viewBox="0 0 150 52">
  <defs>
    <style>
      .cls-1 {
        fill: #0096ff;
      }

      .cls-2 {
        fill: #0378ff;
      }
    </style>
  </defs>
  <g>
    <path class="cls-1" d="M119.79,2.07c-13.88,0-23.16,9.98-23.16,23.93s9.28,23.93,23.16,23.93,23.16-9.98,23.16-23.93-9.28-23.93-23.16-23.93ZM119.79,38.54c-3.58,0-9.08-2.37-9.08-12.54s5.5-12.54,9.08-12.54,9.09,2.37,9.09,12.54-5.5,12.54-9.09,12.54Z"/>
    <path class="cls-1" d="M80.5,27.6h-.13l-14.4-24.44h0s-9.04-.01-9.04-.01c-2.36,0-4.27,1.91-4.27,4.27v32.83h13.31v-14.77l14.14,23.37h9.42c2.36,0,4.27-1.91,4.27-4.27V3.16h-13.31v24.44Z"/>
    <path class="cls-1" d="M38.73,3.16c-2.35,0-4.24,1.9-4.24,4.25v20.51c0,4.65,0,10.44-6.62,10.44s-6.81-5.79-6.81-10.44V7.41c0-2.35-1.9-4.25-4.25-4.25h0s-9.76,0-9.76,0v27.88c0,12.6,6.88,18.65,20.75,18.65s20.69-6.05,20.69-18.65V3.16h-9.76Z"/>
    <path class="cls-1" d="M52.67,44.57c0,2.36,1.91,4.27,4.27,4.27h9.04v-5.75h-13.31v1.48Z"/>
  </g>
  <path class="cls-2" d="M65.98,3.16l7.33,34.42-7.33-12.11V3.16Z"/>
</svg>