<?xml version="1.0" encoding="UTF-8"?>
<svg id="Capa_1" data-name="Capa 1" xmlns="http://www.w3.org/2000/svg" viewBox="0 0 150 52">
  <defs>
    <style>
      .cls-1 {
        fill: #211e23;
      }

      .cls-2 {
        fill: #1a171b;
      }
    </style>
  </defs>
  <g>
    <path class="cls-2" d="M121.49,1.16c-14.41,0-24.04,10.36-24.04,24.84s9.63,24.84,24.04,24.84,24.04-10.36,24.04-24.84S135.91,1.16,121.49,1.16ZM121.49,39.02c-3.72,0-9.43-2.46-9.43-13.02s5.71-13.02,9.43-13.02,9.43,2.46,9.43,13.02-5.71,13.02-9.43,13.02Z"/>
    <path class="cls-2" d="M80.71,27.66h-.13l-14.94-25.37v-.02h-9.38c-2.45,0-4.43,1.98-4.43,4.43v34.08h13.82v-15.33l14.68,24.25h9.78c2.45,0,4.43-1.99,4.43-4.43V2.29h-13.81v25.37Z"/>
    <path class="cls-2" d="M37.35,2.29c-2.43,0-4.41,1.97-4.41,4.41v21.29c0,4.83,0,10.84-6.87,10.84s-7.07-6.01-7.07-10.84V6.7c0-2.44-1.98-4.41-4.41-4.41h0s-10.13,0-10.13,0v28.94c0,13.08,7.14,19.36,21.54,19.36s21.47-6.28,21.47-19.36V2.29h-10.13Z"/>
  </g>
  <path class="cls-1" d="M65.64,2.29l7.6,35.73-7.61-12.57V2.29Z"/>
  <path class="cls-2" d="M51.82,43.75v1.53c0,2.45,1.98,4.43,4.43,4.43h9.38v-5.97h-13.81Z"/>
</svg>